G04 #@! TF.GenerationSoftware,KiCad,Pcbnew,5.1.12-84ad8e8a86~92~ubuntu20.04.1*
G04 #@! TF.CreationDate,2022-01-29T12:50:19-06:00*
G04 #@! TF.ProjectId,TICK_AC,5449434b-5f41-4432-9e6b-696361645f70,rev?*
G04 #@! TF.SameCoordinates,Original*
G04 #@! TF.FileFunction,Legend,Bot*
G04 #@! TF.FilePolarity,Positive*
%FSLAX46Y46*%
G04 Gerber Fmt 4.6, Leading zero omitted, Abs format (unit mm)*
G04 Created by KiCad (PCBNEW 5.1.12-84ad8e8a86~92~ubuntu20.04.1) date 2022-01-29 12:50:19*
%MOMM*%
%LPD*%
G01*
G04 APERTURE LIST*
%ADD10C,0.150000*%
%ADD11R,3.500000X3.500000*%
%ADD12O,1.700000X1.700000*%
%ADD13R,1.700000X1.700000*%
G04 APERTURE END LIST*
D10*
X152398619Y-110526580D02*
X151827190Y-110526580D01*
X152112904Y-111526580D02*
X152112904Y-110526580D01*
X151493857Y-111526580D02*
X151493857Y-110526580D01*
X151065285Y-111526580D02*
X151065285Y-111002771D01*
X151112904Y-110907533D01*
X151208142Y-110859914D01*
X151351000Y-110859914D01*
X151446238Y-110907533D01*
X151493857Y-110955152D01*
X150208142Y-111478961D02*
X150303380Y-111526580D01*
X150493857Y-111526580D01*
X150589095Y-111478961D01*
X150636714Y-111383723D01*
X150636714Y-111002771D01*
X150589095Y-110907533D01*
X150493857Y-110859914D01*
X150303380Y-110859914D01*
X150208142Y-110907533D01*
X150160523Y-111002771D01*
X150160523Y-111098009D01*
X150636714Y-111193247D01*
X149112904Y-110859914D02*
X148731952Y-110859914D01*
X148970047Y-110526580D02*
X148970047Y-111383723D01*
X148922428Y-111478961D01*
X148827190Y-111526580D01*
X148731952Y-111526580D01*
X148398619Y-111526580D02*
X148398619Y-110859914D01*
X148398619Y-110526580D02*
X148446238Y-110574200D01*
X148398619Y-110621819D01*
X148351000Y-110574200D01*
X148398619Y-110526580D01*
X148398619Y-110621819D01*
X147922428Y-111526580D02*
X147922428Y-110859914D01*
X147922428Y-110955152D02*
X147874809Y-110907533D01*
X147779571Y-110859914D01*
X147636714Y-110859914D01*
X147541476Y-110907533D01*
X147493857Y-111002771D01*
X147493857Y-111526580D01*
X147493857Y-111002771D02*
X147446238Y-110907533D01*
X147351000Y-110859914D01*
X147208142Y-110859914D01*
X147112904Y-110907533D01*
X147065285Y-111002771D01*
X147065285Y-111526580D01*
X146208142Y-111478961D02*
X146303380Y-111526580D01*
X146493857Y-111526580D01*
X146589095Y-111478961D01*
X146636714Y-111383723D01*
X146636714Y-111002771D01*
X146589095Y-110907533D01*
X146493857Y-110859914D01*
X146303380Y-110859914D01*
X146208142Y-110907533D01*
X146160523Y-111002771D01*
X146160523Y-111098009D01*
X146636714Y-111193247D01*
X144970047Y-111526580D02*
X144970047Y-110859914D01*
X144970047Y-110526580D02*
X145017666Y-110574200D01*
X144970047Y-110621819D01*
X144922428Y-110574200D01*
X144970047Y-110526580D01*
X144970047Y-110621819D01*
X144541476Y-111478961D02*
X144446238Y-111526580D01*
X144255761Y-111526580D01*
X144160523Y-111478961D01*
X144112904Y-111383723D01*
X144112904Y-111336104D01*
X144160523Y-111240866D01*
X144255761Y-111193247D01*
X144398619Y-111193247D01*
X144493857Y-111145628D01*
X144541476Y-111050390D01*
X144541476Y-111002771D01*
X144493857Y-110907533D01*
X144398619Y-110859914D01*
X144255761Y-110859914D01*
X144160523Y-110907533D01*
X142922428Y-110859914D02*
X142922428Y-111859914D01*
X142922428Y-110907533D02*
X142827190Y-110859914D01*
X142636714Y-110859914D01*
X142541476Y-110907533D01*
X142493857Y-110955152D01*
X142446238Y-111050390D01*
X142446238Y-111336104D01*
X142493857Y-111431342D01*
X142541476Y-111478961D01*
X142636714Y-111526580D01*
X142827190Y-111526580D01*
X142922428Y-111478961D01*
X142017666Y-111526580D02*
X142017666Y-110859914D01*
X142017666Y-111050390D02*
X141970047Y-110955152D01*
X141922428Y-110907533D01*
X141827190Y-110859914D01*
X141731952Y-110859914D01*
X141017666Y-111478961D02*
X141112904Y-111526580D01*
X141303380Y-111526580D01*
X141398619Y-111478961D01*
X141446238Y-111383723D01*
X141446238Y-111002771D01*
X141398619Y-110907533D01*
X141303380Y-110859914D01*
X141112904Y-110859914D01*
X141017666Y-110907533D01*
X140970047Y-111002771D01*
X140970047Y-111098009D01*
X141446238Y-111193247D01*
X140112904Y-111478961D02*
X140208142Y-111526580D01*
X140398619Y-111526580D01*
X140493857Y-111478961D01*
X140541476Y-111431342D01*
X140589095Y-111336104D01*
X140589095Y-111050390D01*
X140541476Y-110955152D01*
X140493857Y-110907533D01*
X140398619Y-110859914D01*
X140208142Y-110859914D01*
X140112904Y-110907533D01*
X139684333Y-111526580D02*
X139684333Y-110859914D01*
X139684333Y-110526580D02*
X139731952Y-110574200D01*
X139684333Y-110621819D01*
X139636714Y-110574200D01*
X139684333Y-110526580D01*
X139684333Y-110621819D01*
X139065285Y-111526580D02*
X139160523Y-111478961D01*
X139208142Y-111431342D01*
X139255761Y-111336104D01*
X139255761Y-111050390D01*
X139208142Y-110955152D01*
X139160523Y-110907533D01*
X139065285Y-110859914D01*
X138922428Y-110859914D01*
X138827190Y-110907533D01*
X138779571Y-110955152D01*
X138731952Y-111050390D01*
X138731952Y-111336104D01*
X138779571Y-111431342D01*
X138827190Y-111478961D01*
X138922428Y-111526580D01*
X139065285Y-111526580D01*
X137874809Y-110859914D02*
X137874809Y-111526580D01*
X138303380Y-110859914D02*
X138303380Y-111383723D01*
X138255761Y-111478961D01*
X138160523Y-111526580D01*
X138017666Y-111526580D01*
X137922428Y-111478961D01*
X137874809Y-111431342D01*
X137446238Y-111478961D02*
X137351000Y-111526580D01*
X137160523Y-111526580D01*
X137065285Y-111478961D01*
X137017666Y-111383723D01*
X137017666Y-111336104D01*
X137065285Y-111240866D01*
X137160523Y-111193247D01*
X137303380Y-111193247D01*
X137398619Y-111145628D01*
X137446238Y-111050390D01*
X137446238Y-111002771D01*
X137398619Y-110907533D01*
X137303380Y-110859914D01*
X137160523Y-110859914D01*
X137065285Y-110907533D01*
X136541476Y-111478961D02*
X136541476Y-111526580D01*
X136589095Y-111621819D01*
X136636714Y-111669438D01*
X135351000Y-111526580D02*
X135351000Y-110526580D01*
X134112904Y-111526580D02*
X134112904Y-110526580D01*
X134017666Y-111145628D02*
X133731952Y-111526580D01*
X133731952Y-110859914D02*
X134112904Y-111240866D01*
X133303380Y-110859914D02*
X133303380Y-111526580D01*
X133303380Y-110955152D02*
X133255761Y-110907533D01*
X133160523Y-110859914D01*
X133017666Y-110859914D01*
X132922428Y-110907533D01*
X132874809Y-111002771D01*
X132874809Y-111526580D01*
X132255761Y-111526580D02*
X132351000Y-111478961D01*
X132398619Y-111431342D01*
X132446238Y-111336104D01*
X132446238Y-111050390D01*
X132398619Y-110955152D01*
X132351000Y-110907533D01*
X132255761Y-110859914D01*
X132112904Y-110859914D01*
X132017666Y-110907533D01*
X131970047Y-110955152D01*
X131922428Y-111050390D01*
X131922428Y-111336104D01*
X131970047Y-111431342D01*
X132017666Y-111478961D01*
X132112904Y-111526580D01*
X132255761Y-111526580D01*
X131589095Y-110859914D02*
X131398619Y-111526580D01*
X131208142Y-111050390D01*
X131017666Y-111526580D01*
X130827190Y-110859914D01*
X130446238Y-111431342D02*
X130398619Y-111478961D01*
X130446238Y-111526580D01*
X130493857Y-111478961D01*
X130446238Y-111431342D01*
X130446238Y-111526580D01*
X148535057Y-104482600D02*
X147963628Y-104482600D01*
X148649342Y-104825457D02*
X148249342Y-103625457D01*
X147849342Y-104825457D01*
X147449342Y-104825457D02*
X147449342Y-104025457D01*
X147449342Y-104139742D02*
X147392200Y-104082600D01*
X147277914Y-104025457D01*
X147106485Y-104025457D01*
X146992200Y-104082600D01*
X146935057Y-104196885D01*
X146935057Y-104825457D01*
X146935057Y-104196885D02*
X146877914Y-104082600D01*
X146763628Y-104025457D01*
X146592200Y-104025457D01*
X146477914Y-104082600D01*
X146420771Y-104196885D01*
X146420771Y-104825457D01*
X145849342Y-104825457D02*
X145849342Y-104025457D01*
X145849342Y-103625457D02*
X145906485Y-103682600D01*
X145849342Y-103739742D01*
X145792200Y-103682600D01*
X145849342Y-103625457D01*
X145849342Y-103739742D01*
X144763628Y-104025457D02*
X144763628Y-104996885D01*
X144820771Y-105111171D01*
X144877914Y-105168314D01*
X144992200Y-105225457D01*
X145163628Y-105225457D01*
X145277914Y-105168314D01*
X144763628Y-104768314D02*
X144877914Y-104825457D01*
X145106485Y-104825457D01*
X145220771Y-104768314D01*
X145277914Y-104711171D01*
X145335057Y-104596885D01*
X145335057Y-104254028D01*
X145277914Y-104139742D01*
X145220771Y-104082600D01*
X145106485Y-104025457D01*
X144877914Y-104025457D01*
X144763628Y-104082600D01*
X143677914Y-104825457D02*
X143677914Y-104196885D01*
X143735057Y-104082600D01*
X143849342Y-104025457D01*
X144077914Y-104025457D01*
X144192200Y-104082600D01*
X143677914Y-104768314D02*
X143792200Y-104825457D01*
X144077914Y-104825457D01*
X144192200Y-104768314D01*
X144249342Y-104654028D01*
X144249342Y-104539742D01*
X144192200Y-104425457D01*
X144077914Y-104368314D01*
X143792200Y-104368314D01*
X143677914Y-104311171D01*
X142249342Y-103739742D02*
X142192200Y-103682600D01*
X142077914Y-103625457D01*
X141792200Y-103625457D01*
X141677914Y-103682600D01*
X141620771Y-103739742D01*
X141563628Y-103854028D01*
X141563628Y-103968314D01*
X141620771Y-104139742D01*
X142306485Y-104825457D01*
X141563628Y-104825457D01*
X140820771Y-103625457D02*
X140706485Y-103625457D01*
X140592200Y-103682600D01*
X140535057Y-103739742D01*
X140477914Y-103854028D01*
X140420771Y-104082600D01*
X140420771Y-104368314D01*
X140477914Y-104596885D01*
X140535057Y-104711171D01*
X140592200Y-104768314D01*
X140706485Y-104825457D01*
X140820771Y-104825457D01*
X140935057Y-104768314D01*
X140992200Y-104711171D01*
X141049342Y-104596885D01*
X141106485Y-104368314D01*
X141106485Y-104082600D01*
X141049342Y-103854028D01*
X140992200Y-103739742D01*
X140935057Y-103682600D01*
X140820771Y-103625457D01*
X139677914Y-103625457D02*
X139563628Y-103625457D01*
X139449342Y-103682600D01*
X139392200Y-103739742D01*
X139335057Y-103854028D01*
X139277914Y-104082600D01*
X139277914Y-104368314D01*
X139335057Y-104596885D01*
X139392200Y-104711171D01*
X139449342Y-104768314D01*
X139563628Y-104825457D01*
X139677914Y-104825457D01*
X139792200Y-104768314D01*
X139849342Y-104711171D01*
X139906485Y-104596885D01*
X139963628Y-104368314D01*
X139963628Y-104082600D01*
X139906485Y-103854028D01*
X139849342Y-103739742D01*
X139792200Y-103682600D01*
X139677914Y-103625457D01*
X138535057Y-103625457D02*
X138420771Y-103625457D01*
X138306485Y-103682600D01*
X138249342Y-103739742D01*
X138192200Y-103854028D01*
X138135057Y-104082600D01*
X138135057Y-104368314D01*
X138192200Y-104596885D01*
X138249342Y-104711171D01*
X138306485Y-104768314D01*
X138420771Y-104825457D01*
X138535057Y-104825457D01*
X138649342Y-104768314D01*
X138706485Y-104711171D01*
X138763628Y-104596885D01*
X138820771Y-104368314D01*
X138820771Y-104082600D01*
X138763628Y-103854028D01*
X138706485Y-103739742D01*
X138649342Y-103682600D01*
X138535057Y-103625457D01*
X136706485Y-104196885D02*
X136306485Y-104196885D01*
X136135057Y-104825457D02*
X136706485Y-104825457D01*
X136706485Y-103625457D01*
X136135057Y-103625457D01*
X135677914Y-104482600D02*
X135106485Y-104482600D01*
X135792200Y-104825457D02*
X135392200Y-103625457D01*
X134992200Y-104825457D01*
X134763628Y-103625457D02*
X134077914Y-103625457D01*
X134420771Y-104825457D02*
X134420771Y-103625457D01*
X133792200Y-103625457D02*
X132992200Y-104825457D01*
X132992200Y-103625457D02*
X133792200Y-104825457D01*
X147135057Y-106432600D02*
X146563628Y-106432600D01*
X147249342Y-106775457D02*
X146849342Y-105575457D01*
X146449342Y-106775457D01*
X145363628Y-106661171D02*
X145420771Y-106718314D01*
X145592200Y-106775457D01*
X145706485Y-106775457D01*
X145877914Y-106718314D01*
X145992200Y-106604028D01*
X146049342Y-106489742D01*
X146106485Y-106261171D01*
X146106485Y-106089742D01*
X146049342Y-105861171D01*
X145992200Y-105746885D01*
X145877914Y-105632600D01*
X145706485Y-105575457D01*
X145592200Y-105575457D01*
X145420771Y-105632600D01*
X145363628Y-105689742D01*
X144106485Y-105575457D02*
X143420771Y-105575457D01*
X143763628Y-106775457D02*
X143763628Y-105575457D01*
X143020771Y-106775457D02*
X143020771Y-105575457D01*
X141763628Y-106661171D02*
X141820771Y-106718314D01*
X141992200Y-106775457D01*
X142106485Y-106775457D01*
X142277914Y-106718314D01*
X142392200Y-106604028D01*
X142449342Y-106489742D01*
X142506485Y-106261171D01*
X142506485Y-106089742D01*
X142449342Y-105861171D01*
X142392200Y-105746885D01*
X142277914Y-105632600D01*
X142106485Y-105575457D01*
X141992200Y-105575457D01*
X141820771Y-105632600D01*
X141763628Y-105689742D01*
X141249342Y-106775457D02*
X141249342Y-105575457D01*
X140563628Y-106775457D02*
X141077914Y-106089742D01*
X140563628Y-105575457D02*
X141249342Y-106261171D01*
X138735057Y-106146885D02*
X138563628Y-106204028D01*
X138506485Y-106261171D01*
X138449342Y-106375457D01*
X138449342Y-106546885D01*
X138506485Y-106661171D01*
X138563628Y-106718314D01*
X138677914Y-106775457D01*
X139135057Y-106775457D01*
X139135057Y-105575457D01*
X138735057Y-105575457D01*
X138620771Y-105632600D01*
X138563628Y-105689742D01*
X138506485Y-105804028D01*
X138506485Y-105918314D01*
X138563628Y-106032600D01*
X138620771Y-106089742D01*
X138735057Y-106146885D01*
X139135057Y-106146885D01*
X137763628Y-106775457D02*
X137877914Y-106718314D01*
X137935057Y-106661171D01*
X137992200Y-106546885D01*
X137992200Y-106204028D01*
X137935057Y-106089742D01*
X137877914Y-106032600D01*
X137763628Y-105975457D01*
X137592200Y-105975457D01*
X137477914Y-106032600D01*
X137420771Y-106089742D01*
X137363628Y-106204028D01*
X137363628Y-106546885D01*
X137420771Y-106661171D01*
X137477914Y-106718314D01*
X137592200Y-106775457D01*
X137763628Y-106775457D01*
X136335057Y-106775457D02*
X136335057Y-106146885D01*
X136392200Y-106032600D01*
X136506485Y-105975457D01*
X136735057Y-105975457D01*
X136849342Y-106032600D01*
X136335057Y-106718314D02*
X136449342Y-106775457D01*
X136735057Y-106775457D01*
X136849342Y-106718314D01*
X136906485Y-106604028D01*
X136906485Y-106489742D01*
X136849342Y-106375457D01*
X136735057Y-106318314D01*
X136449342Y-106318314D01*
X136335057Y-106261171D01*
X135763628Y-106775457D02*
X135763628Y-105975457D01*
X135763628Y-106204028D02*
X135706485Y-106089742D01*
X135649342Y-106032600D01*
X135535057Y-105975457D01*
X135420771Y-105975457D01*
X134506485Y-106775457D02*
X134506485Y-105575457D01*
X134506485Y-106718314D02*
X134620771Y-106775457D01*
X134849342Y-106775457D01*
X134963628Y-106718314D01*
X135020771Y-106661171D01*
X135077914Y-106546885D01*
X135077914Y-106204028D01*
X135020771Y-106089742D01*
X134963628Y-106032600D01*
X134849342Y-105975457D01*
X134620771Y-105975457D01*
X134506485Y-106032600D01*
X152341571Y-96634057D02*
X152341571Y-97605485D01*
X152398714Y-97719771D01*
X152455857Y-97776914D01*
X152570142Y-97834057D01*
X152741571Y-97834057D01*
X152855857Y-97776914D01*
X152341571Y-97376914D02*
X152455857Y-97434057D01*
X152684428Y-97434057D01*
X152798714Y-97376914D01*
X152855857Y-97319771D01*
X152913000Y-97205485D01*
X152913000Y-96862628D01*
X152855857Y-96748342D01*
X152798714Y-96691200D01*
X152684428Y-96634057D01*
X152455857Y-96634057D01*
X152341571Y-96691200D01*
X151770142Y-97434057D02*
X151770142Y-96634057D01*
X151770142Y-96234057D02*
X151827285Y-96291200D01*
X151770142Y-96348342D01*
X151713000Y-96291200D01*
X151770142Y-96234057D01*
X151770142Y-96348342D01*
X151370142Y-96634057D02*
X150913000Y-96634057D01*
X151198714Y-96234057D02*
X151198714Y-97262628D01*
X151141571Y-97376914D01*
X151027285Y-97434057D01*
X150913000Y-97434057D01*
X150513000Y-97434057D02*
X150513000Y-96234057D01*
X149998714Y-97434057D02*
X149998714Y-96805485D01*
X150055857Y-96691200D01*
X150170142Y-96634057D01*
X150341571Y-96634057D01*
X150455857Y-96691200D01*
X150513000Y-96748342D01*
X148913000Y-96634057D02*
X148913000Y-97434057D01*
X149427285Y-96634057D02*
X149427285Y-97262628D01*
X149370142Y-97376914D01*
X149255857Y-97434057D01*
X149084428Y-97434057D01*
X148970142Y-97376914D01*
X148913000Y-97319771D01*
X148341571Y-97434057D02*
X148341571Y-96234057D01*
X148341571Y-96691200D02*
X148227285Y-96634057D01*
X147998714Y-96634057D01*
X147884428Y-96691200D01*
X147827285Y-96748342D01*
X147770142Y-96862628D01*
X147770142Y-97205485D01*
X147827285Y-97319771D01*
X147884428Y-97376914D01*
X147998714Y-97434057D01*
X148227285Y-97434057D01*
X148341571Y-97376914D01*
X147255857Y-97319771D02*
X147198714Y-97376914D01*
X147255857Y-97434057D01*
X147313000Y-97376914D01*
X147255857Y-97319771D01*
X147255857Y-97434057D01*
X146170142Y-97376914D02*
X146284428Y-97434057D01*
X146513000Y-97434057D01*
X146627285Y-97376914D01*
X146684428Y-97319771D01*
X146741571Y-97205485D01*
X146741571Y-96862628D01*
X146684428Y-96748342D01*
X146627285Y-96691200D01*
X146513000Y-96634057D01*
X146284428Y-96634057D01*
X146170142Y-96691200D01*
X145484428Y-97434057D02*
X145598714Y-97376914D01*
X145655857Y-97319771D01*
X145713000Y-97205485D01*
X145713000Y-96862628D01*
X145655857Y-96748342D01*
X145598714Y-96691200D01*
X145484428Y-96634057D01*
X145313000Y-96634057D01*
X145198714Y-96691200D01*
X145141571Y-96748342D01*
X145084428Y-96862628D01*
X145084428Y-97205485D01*
X145141571Y-97319771D01*
X145198714Y-97376914D01*
X145313000Y-97434057D01*
X145484428Y-97434057D01*
X144570142Y-97434057D02*
X144570142Y-96634057D01*
X144570142Y-96748342D02*
X144513000Y-96691200D01*
X144398714Y-96634057D01*
X144227285Y-96634057D01*
X144113000Y-96691200D01*
X144055857Y-96805485D01*
X144055857Y-97434057D01*
X144055857Y-96805485D02*
X143998714Y-96691200D01*
X143884428Y-96634057D01*
X143713000Y-96634057D01*
X143598714Y-96691200D01*
X143541571Y-96805485D01*
X143541571Y-97434057D01*
X142113000Y-96176914D02*
X143141571Y-97719771D01*
X141713000Y-96634057D02*
X141713000Y-97662628D01*
X141770142Y-97776914D01*
X141884428Y-97834057D01*
X141941571Y-97834057D01*
X141713000Y-96234057D02*
X141770142Y-96291200D01*
X141713000Y-96348342D01*
X141655857Y-96291200D01*
X141713000Y-96234057D01*
X141713000Y-96348342D01*
X140627285Y-97434057D02*
X140627285Y-96805485D01*
X140684428Y-96691200D01*
X140798714Y-96634057D01*
X141027285Y-96634057D01*
X141141571Y-96691200D01*
X140627285Y-97376914D02*
X140741571Y-97434057D01*
X141027285Y-97434057D01*
X141141571Y-97376914D01*
X141198714Y-97262628D01*
X141198714Y-97148342D01*
X141141571Y-97034057D01*
X141027285Y-96976914D01*
X140741571Y-96976914D01*
X140627285Y-96919771D01*
X140113000Y-97376914D02*
X139998714Y-97434057D01*
X139770142Y-97434057D01*
X139655857Y-97376914D01*
X139598714Y-97262628D01*
X139598714Y-97205485D01*
X139655857Y-97091200D01*
X139770142Y-97034057D01*
X139941571Y-97034057D01*
X140055857Y-96976914D01*
X140113000Y-96862628D01*
X140113000Y-96805485D01*
X140055857Y-96691200D01*
X139941571Y-96634057D01*
X139770142Y-96634057D01*
X139655857Y-96691200D01*
X138913000Y-97434057D02*
X139027285Y-97376914D01*
X139084428Y-97319771D01*
X139141571Y-97205485D01*
X139141571Y-96862628D01*
X139084428Y-96748342D01*
X139027285Y-96691200D01*
X138913000Y-96634057D01*
X138741571Y-96634057D01*
X138627285Y-96691200D01*
X138570142Y-96748342D01*
X138513000Y-96862628D01*
X138513000Y-97205485D01*
X138570142Y-97319771D01*
X138627285Y-97376914D01*
X138741571Y-97434057D01*
X138913000Y-97434057D01*
X137998714Y-96634057D02*
X137998714Y-97434057D01*
X137998714Y-96748342D02*
X137941571Y-96691200D01*
X137827285Y-96634057D01*
X137655857Y-96634057D01*
X137541571Y-96691200D01*
X137484428Y-96805485D01*
X137484428Y-97434057D01*
X136970142Y-97376914D02*
X136855857Y-97434057D01*
X136627285Y-97434057D01*
X136513000Y-97376914D01*
X136455857Y-97262628D01*
X136455857Y-97205485D01*
X136513000Y-97091200D01*
X136627285Y-97034057D01*
X136798714Y-97034057D01*
X136913000Y-96976914D01*
X136970142Y-96862628D01*
X136970142Y-96805485D01*
X136913000Y-96691200D01*
X136798714Y-96634057D01*
X136627285Y-96634057D01*
X136513000Y-96691200D01*
X135941571Y-97434057D02*
X135941571Y-96234057D01*
X135941571Y-96691200D02*
X135827285Y-96634057D01*
X135598714Y-96634057D01*
X135484428Y-96691200D01*
X135427285Y-96748342D01*
X135370142Y-96862628D01*
X135370142Y-97205485D01*
X135427285Y-97319771D01*
X135484428Y-97376914D01*
X135598714Y-97434057D01*
X135827285Y-97434057D01*
X135941571Y-97376914D01*
X134398714Y-97376914D02*
X134513000Y-97434057D01*
X134741571Y-97434057D01*
X134855857Y-97376914D01*
X134913000Y-97262628D01*
X134913000Y-96805485D01*
X134855857Y-96691200D01*
X134741571Y-96634057D01*
X134513000Y-96634057D01*
X134398714Y-96691200D01*
X134341571Y-96805485D01*
X134341571Y-96919771D01*
X134913000Y-97034057D01*
X133370142Y-97376914D02*
X133484428Y-97434057D01*
X133713000Y-97434057D01*
X133827285Y-97376914D01*
X133884428Y-97262628D01*
X133884428Y-96805485D01*
X133827285Y-96691200D01*
X133713000Y-96634057D01*
X133484428Y-96634057D01*
X133370142Y-96691200D01*
X133313000Y-96805485D01*
X133313000Y-96919771D01*
X133884428Y-97034057D01*
X132798714Y-97434057D02*
X132798714Y-96634057D01*
X132798714Y-96862628D02*
X132741571Y-96748342D01*
X132684428Y-96691200D01*
X132570142Y-96634057D01*
X132455857Y-96634057D01*
X131198714Y-96176914D02*
X132227285Y-97719771D01*
X150427285Y-99041200D02*
X149855857Y-99041200D01*
X150541571Y-99384057D02*
X150141571Y-98184057D01*
X149741571Y-99384057D01*
X149341571Y-99384057D02*
X149341571Y-98584057D01*
X149341571Y-98698342D02*
X149284428Y-98641200D01*
X149170142Y-98584057D01*
X148998714Y-98584057D01*
X148884428Y-98641200D01*
X148827285Y-98755485D01*
X148827285Y-99384057D01*
X148827285Y-98755485D02*
X148770142Y-98641200D01*
X148655857Y-98584057D01*
X148484428Y-98584057D01*
X148370142Y-98641200D01*
X148313000Y-98755485D01*
X148313000Y-99384057D01*
X147741571Y-99384057D02*
X147741571Y-98584057D01*
X147741571Y-98184057D02*
X147798714Y-98241200D01*
X147741571Y-98298342D01*
X147684428Y-98241200D01*
X147741571Y-98184057D01*
X147741571Y-98298342D01*
X146655857Y-98584057D02*
X146655857Y-99555485D01*
X146713000Y-99669771D01*
X146770142Y-99726914D01*
X146884428Y-99784057D01*
X147055857Y-99784057D01*
X147170142Y-99726914D01*
X146655857Y-99326914D02*
X146770142Y-99384057D01*
X146998714Y-99384057D01*
X147113000Y-99326914D01*
X147170142Y-99269771D01*
X147227285Y-99155485D01*
X147227285Y-98812628D01*
X147170142Y-98698342D01*
X147113000Y-98641200D01*
X146998714Y-98584057D01*
X146770142Y-98584057D01*
X146655857Y-98641200D01*
X145570142Y-99384057D02*
X145570142Y-98755485D01*
X145627285Y-98641200D01*
X145741571Y-98584057D01*
X145970142Y-98584057D01*
X146084428Y-98641200D01*
X145570142Y-99326914D02*
X145684428Y-99384057D01*
X145970142Y-99384057D01*
X146084428Y-99326914D01*
X146141571Y-99212628D01*
X146141571Y-99098342D01*
X146084428Y-98984057D01*
X145970142Y-98926914D01*
X145684428Y-98926914D01*
X145570142Y-98869771D01*
X144998714Y-98926914D02*
X144084428Y-98926914D01*
X143570142Y-98298342D02*
X143513000Y-98241200D01*
X143398714Y-98184057D01*
X143113000Y-98184057D01*
X142998714Y-98241200D01*
X142941571Y-98298342D01*
X142884428Y-98412628D01*
X142884428Y-98526914D01*
X142941571Y-98698342D01*
X143627285Y-99384057D01*
X142884428Y-99384057D01*
X142141571Y-98184057D02*
X142027285Y-98184057D01*
X141913000Y-98241200D01*
X141855857Y-98298342D01*
X141798714Y-98412628D01*
X141741571Y-98641200D01*
X141741571Y-98926914D01*
X141798714Y-99155485D01*
X141855857Y-99269771D01*
X141913000Y-99326914D01*
X142027285Y-99384057D01*
X142141571Y-99384057D01*
X142255857Y-99326914D01*
X142313000Y-99269771D01*
X142370142Y-99155485D01*
X142427285Y-98926914D01*
X142427285Y-98641200D01*
X142370142Y-98412628D01*
X142313000Y-98298342D01*
X142255857Y-98241200D01*
X142141571Y-98184057D01*
X140998714Y-98184057D02*
X140884428Y-98184057D01*
X140770142Y-98241200D01*
X140713000Y-98298342D01*
X140655857Y-98412628D01*
X140598714Y-98641200D01*
X140598714Y-98926914D01*
X140655857Y-99155485D01*
X140713000Y-99269771D01*
X140770142Y-99326914D01*
X140884428Y-99384057D01*
X140998714Y-99384057D01*
X141113000Y-99326914D01*
X141170142Y-99269771D01*
X141227285Y-99155485D01*
X141284428Y-98926914D01*
X141284428Y-98641200D01*
X141227285Y-98412628D01*
X141170142Y-98298342D01*
X141113000Y-98241200D01*
X140998714Y-98184057D01*
X139855857Y-98184057D02*
X139741571Y-98184057D01*
X139627285Y-98241200D01*
X139570142Y-98298342D01*
X139513000Y-98412628D01*
X139455857Y-98641200D01*
X139455857Y-98926914D01*
X139513000Y-99155485D01*
X139570142Y-99269771D01*
X139627285Y-99326914D01*
X139741571Y-99384057D01*
X139855857Y-99384057D01*
X139970142Y-99326914D01*
X140027285Y-99269771D01*
X140084428Y-99155485D01*
X140141571Y-98926914D01*
X140141571Y-98641200D01*
X140084428Y-98412628D01*
X140027285Y-98298342D01*
X139970142Y-98241200D01*
X139855857Y-98184057D01*
X138941571Y-98926914D02*
X138027285Y-98926914D01*
X137455857Y-98755485D02*
X137055857Y-98755485D01*
X136884428Y-99384057D02*
X137455857Y-99384057D01*
X137455857Y-98184057D01*
X136884428Y-98184057D01*
X136427285Y-99041200D02*
X135855857Y-99041200D01*
X136541571Y-99384057D02*
X136141571Y-98184057D01*
X135741571Y-99384057D01*
X135513000Y-98184057D02*
X134827285Y-98184057D01*
X135170142Y-99384057D02*
X135170142Y-98184057D01*
X134541571Y-98184057D02*
X133741571Y-99384057D01*
X133741571Y-98184057D02*
X134541571Y-99384057D01*
%LPC*%
G36*
G01*
X151273000Y-100348400D02*
X153273000Y-100348400D01*
G75*
G02*
X154023000Y-101098400I0J-750000D01*
G01*
X154023000Y-102598400D01*
G75*
G02*
X153273000Y-103348400I-750000J0D01*
G01*
X151273000Y-103348400D01*
G75*
G02*
X150523000Y-102598400I0J750000D01*
G01*
X150523000Y-101098400D01*
G75*
G02*
X151273000Y-100348400I750000J0D01*
G01*
G37*
D11*
X152273000Y-107848400D03*
D12*
X128955800Y-110134400D03*
X128955800Y-107594400D03*
X128955800Y-105054400D03*
X128955800Y-102514400D03*
X128955800Y-99974400D03*
D13*
X128955800Y-97434400D03*
M02*
