%FSLAX45Y45*%
G04 Gerber Fmt 4.5, Leading zero omitted, Abs format (unit mm)*
G04 Created by KiCad (PCBNEW 5.1.12-84ad8e8a86~92~ubuntu20.04.1) date 2021-12-14 21:27:50*
%MOMM*%
%LPD*%
G01*
G04 APERTURE LIST*
%TA.AperFunction,Profile*%
%ADD10C,0.100000*%
%TD*%
%ADD11C,0.200000*%
%ADD12C,0.300000*%
G04 APERTURE END LIST*
D10*
X12321540Y-9395460D02*
X15707360Y-9395460D01*
X12321540Y-11371580D02*
X12321540Y-9395460D01*
X15707360Y-11371580D02*
X12321540Y-11371580D01*
X15707360Y-9395460D02*
X15707360Y-11371580D01*
D11*
X13043220Y-9507540D02*
X13083220Y-9547540D01*
X13083220Y-9507540D02*
X13043220Y-9547540D01*
X13043220Y-11232200D02*
X13083220Y-11272200D01*
X13083220Y-11232200D02*
X13043220Y-11272200D01*
X13147360Y-10358440D02*
X13187360Y-10398440D01*
X13187360Y-10358440D02*
X13147360Y-10398440D01*
X13998260Y-9507540D02*
X14038260Y-9547540D01*
X14038260Y-9507540D02*
X13998260Y-9547540D01*
X13998260Y-11232200D02*
X14038260Y-11272200D01*
X14038260Y-11232200D02*
X13998260Y-11272200D01*
X15004100Y-9507540D02*
X15044100Y-9547540D01*
X15044100Y-9507540D02*
X15004100Y-9547540D01*
X15004100Y-11232200D02*
X15044100Y-11272200D01*
X15044100Y-11232200D02*
X15004100Y-11272200D01*
X15540040Y-9936800D02*
X15580040Y-9976800D01*
X15580040Y-9936800D02*
X15540040Y-9976800D01*
X15540040Y-10663240D02*
X15580040Y-10703240D01*
X15580040Y-10663240D02*
X15540040Y-10703240D01*
X12945580Y-9743440D02*
G75*
G03*
X12945580Y-9743440I-50000J0D01*
G01*
X12945580Y-9997440D02*
G75*
G03*
X12945580Y-9997440I-50000J0D01*
G01*
X12945580Y-10251440D02*
G75*
G03*
X12945580Y-10251440I-50000J0D01*
G01*
X12945580Y-10505440D02*
G75*
G03*
X12945580Y-10505440I-50000J0D01*
G01*
X12945580Y-10759440D02*
G75*
G03*
X12945580Y-10759440I-50000J0D01*
G01*
X12945580Y-11013440D02*
G75*
G03*
X12945580Y-11013440I-50000J0D01*
G01*
X15277300Y-10184840D02*
G75*
G03*
X15277300Y-10184840I-50000J0D01*
G01*
X15327300Y-10144840D02*
X15127300Y-10144840D01*
X15327300Y-10224840D02*
X15127300Y-10224840D01*
X15127300Y-10144840D02*
G75*
G03*
X15127300Y-10224840I0J-40000D01*
G01*
X15327300Y-10224840D02*
G75*
G03*
X15327300Y-10144840I0J40000D01*
G01*
X15277300Y-10784840D02*
G75*
G03*
X15277300Y-10784840I-50000J0D01*
G01*
X15327300Y-10744840D02*
X15127300Y-10744840D01*
X15327300Y-10824840D02*
X15127300Y-10824840D01*
X15127300Y-10744840D02*
G75*
G03*
X15127300Y-10824840I0J-40000D01*
G01*
X15327300Y-10824840D02*
G75*
G03*
X15327300Y-10744840I0J40000D01*
G01*
D12*
X12602968Y-11842294D02*
X12602968Y-11542294D01*
X12674397Y-11542294D01*
X12717254Y-11556580D01*
X12745826Y-11585151D01*
X12760111Y-11613723D01*
X12774397Y-11670866D01*
X12774397Y-11713723D01*
X12760111Y-11770866D01*
X12745826Y-11799437D01*
X12717254Y-11828009D01*
X12674397Y-11842294D01*
X12602968Y-11842294D01*
X12902968Y-11842294D02*
X12902968Y-11642294D01*
X12902968Y-11699437D02*
X12917254Y-11670866D01*
X12931540Y-11656580D01*
X12960111Y-11642294D01*
X12988683Y-11642294D01*
X13088683Y-11842294D02*
X13088683Y-11642294D01*
X13088683Y-11542294D02*
X13074397Y-11556580D01*
X13088683Y-11570866D01*
X13102968Y-11556580D01*
X13088683Y-11542294D01*
X13088683Y-11570866D01*
X13274397Y-11842294D02*
X13245826Y-11828009D01*
X13231540Y-11799437D01*
X13231540Y-11542294D01*
X13431540Y-11842294D02*
X13402968Y-11828009D01*
X13388683Y-11799437D01*
X13388683Y-11542294D01*
X13774397Y-11842294D02*
X13774397Y-11542294D01*
X13874397Y-11756580D01*
X13974397Y-11542294D01*
X13974397Y-11842294D01*
X14245826Y-11842294D02*
X14245826Y-11685151D01*
X14231540Y-11656580D01*
X14202968Y-11642294D01*
X14145826Y-11642294D01*
X14117254Y-11656580D01*
X14245826Y-11828009D02*
X14217254Y-11842294D01*
X14145826Y-11842294D01*
X14117254Y-11828009D01*
X14102968Y-11799437D01*
X14102968Y-11770866D01*
X14117254Y-11742294D01*
X14145826Y-11728009D01*
X14217254Y-11728009D01*
X14245826Y-11713723D01*
X14388683Y-11642294D02*
X14388683Y-11942294D01*
X14388683Y-11656580D02*
X14417254Y-11642294D01*
X14474397Y-11642294D01*
X14502968Y-11656580D01*
X14517254Y-11670866D01*
X14531540Y-11699437D01*
X14531540Y-11785151D01*
X14517254Y-11813723D01*
X14502968Y-11828009D01*
X14474397Y-11842294D01*
X14417254Y-11842294D01*
X14388683Y-11828009D01*
X14660111Y-11813723D02*
X14674397Y-11828009D01*
X14660111Y-11842294D01*
X14645826Y-11828009D01*
X14660111Y-11813723D01*
X14660111Y-11842294D01*
X14660111Y-11656580D02*
X14674397Y-11670866D01*
X14660111Y-11685151D01*
X14645826Y-11670866D01*
X14660111Y-11656580D01*
X14660111Y-11685151D01*
X12276540Y-12316580D02*
X12316540Y-12356580D01*
X12316540Y-12316580D02*
X12276540Y-12356580D01*
X12660111Y-12172294D02*
X12688683Y-12172294D01*
X12717254Y-12186580D01*
X12731540Y-12200866D01*
X12745826Y-12229437D01*
X12760111Y-12286580D01*
X12760111Y-12358009D01*
X12745826Y-12415151D01*
X12731540Y-12443723D01*
X12717254Y-12458009D01*
X12688683Y-12472294D01*
X12660111Y-12472294D01*
X12631540Y-12458009D01*
X12617254Y-12443723D01*
X12602968Y-12415151D01*
X12588683Y-12358009D01*
X12588683Y-12286580D01*
X12602968Y-12229437D01*
X12617254Y-12200866D01*
X12631540Y-12186580D01*
X12660111Y-12172294D01*
X12888683Y-12443723D02*
X12902968Y-12458009D01*
X12888683Y-12472294D01*
X12874397Y-12458009D01*
X12888683Y-12443723D01*
X12888683Y-12472294D01*
X13160111Y-12272294D02*
X13160111Y-12472294D01*
X13088683Y-12158009D02*
X13017254Y-12372294D01*
X13202968Y-12372294D01*
X13374397Y-12172294D02*
X13402968Y-12172294D01*
X13431540Y-12186580D01*
X13445826Y-12200866D01*
X13460111Y-12229437D01*
X13474397Y-12286580D01*
X13474397Y-12358009D01*
X13460111Y-12415151D01*
X13445826Y-12443723D01*
X13431540Y-12458009D01*
X13402968Y-12472294D01*
X13374397Y-12472294D01*
X13345826Y-12458009D01*
X13331540Y-12443723D01*
X13317254Y-12415151D01*
X13302968Y-12358009D01*
X13302968Y-12286580D01*
X13317254Y-12229437D01*
X13331540Y-12200866D01*
X13345826Y-12186580D01*
X13374397Y-12172294D01*
X13660111Y-12172294D02*
X13688683Y-12172294D01*
X13717254Y-12186580D01*
X13731540Y-12200866D01*
X13745826Y-12229437D01*
X13760111Y-12286580D01*
X13760111Y-12358009D01*
X13745826Y-12415151D01*
X13731540Y-12443723D01*
X13717254Y-12458009D01*
X13688683Y-12472294D01*
X13660111Y-12472294D01*
X13631540Y-12458009D01*
X13617254Y-12443723D01*
X13602968Y-12415151D01*
X13588683Y-12358009D01*
X13588683Y-12286580D01*
X13602968Y-12229437D01*
X13617254Y-12200866D01*
X13631540Y-12186580D01*
X13660111Y-12172294D01*
X13888683Y-12472294D02*
X13888683Y-12272294D01*
X13888683Y-12300866D02*
X13902968Y-12286580D01*
X13931540Y-12272294D01*
X13974397Y-12272294D01*
X14002968Y-12286580D01*
X14017254Y-12315151D01*
X14017254Y-12472294D01*
X14017254Y-12315151D02*
X14031540Y-12286580D01*
X14060111Y-12272294D01*
X14102968Y-12272294D01*
X14131540Y-12286580D01*
X14145826Y-12315151D01*
X14145826Y-12472294D01*
X14288683Y-12472294D02*
X14288683Y-12272294D01*
X14288683Y-12300866D02*
X14302968Y-12286580D01*
X14331540Y-12272294D01*
X14374397Y-12272294D01*
X14402968Y-12286580D01*
X14417254Y-12315151D01*
X14417254Y-12472294D01*
X14417254Y-12315151D02*
X14431540Y-12286580D01*
X14460111Y-12272294D01*
X14502968Y-12272294D01*
X14531540Y-12286580D01*
X14545826Y-12315151D01*
X14545826Y-12472294D01*
X15131540Y-12158009D02*
X14874397Y-12543723D01*
X15517254Y-12172294D02*
X15545826Y-12172294D01*
X15574397Y-12186580D01*
X15588683Y-12200866D01*
X15602968Y-12229437D01*
X15617254Y-12286580D01*
X15617254Y-12358009D01*
X15602968Y-12415151D01*
X15588683Y-12443723D01*
X15574397Y-12458009D01*
X15545826Y-12472294D01*
X15517254Y-12472294D01*
X15488683Y-12458009D01*
X15474397Y-12443723D01*
X15460111Y-12415151D01*
X15445826Y-12358009D01*
X15445826Y-12286580D01*
X15460111Y-12229437D01*
X15474397Y-12200866D01*
X15488683Y-12186580D01*
X15517254Y-12172294D01*
X15745826Y-12443723D02*
X15760111Y-12458009D01*
X15745826Y-12472294D01*
X15731540Y-12458009D01*
X15745826Y-12443723D01*
X15745826Y-12472294D01*
X15945826Y-12172294D02*
X15974397Y-12172294D01*
X16002968Y-12186580D01*
X16017254Y-12200866D01*
X16031540Y-12229437D01*
X16045826Y-12286580D01*
X16045826Y-12358009D01*
X16031540Y-12415151D01*
X16017254Y-12443723D01*
X16002968Y-12458009D01*
X15974397Y-12472294D01*
X15945826Y-12472294D01*
X15917254Y-12458009D01*
X15902968Y-12443723D01*
X15888683Y-12415151D01*
X15874397Y-12358009D01*
X15874397Y-12286580D01*
X15888683Y-12229437D01*
X15902968Y-12200866D01*
X15917254Y-12186580D01*
X15945826Y-12172294D01*
X16331540Y-12472294D02*
X16160111Y-12472294D01*
X16245826Y-12472294D02*
X16245826Y-12172294D01*
X16217254Y-12215151D01*
X16188683Y-12243723D01*
X16160111Y-12258009D01*
X16602968Y-12172294D02*
X16460111Y-12172294D01*
X16445826Y-12315151D01*
X16460111Y-12300866D01*
X16488683Y-12286580D01*
X16560111Y-12286580D01*
X16588683Y-12300866D01*
X16602968Y-12315151D01*
X16617254Y-12343723D01*
X16617254Y-12415151D01*
X16602968Y-12443723D01*
X16588683Y-12458009D01*
X16560111Y-12472294D01*
X16488683Y-12472294D01*
X16460111Y-12458009D01*
X16445826Y-12443723D01*
X16717254Y-12172294D02*
X16917254Y-12172294D01*
X16788683Y-12472294D01*
X17017254Y-12172294D02*
X17017254Y-12229437D01*
X17131540Y-12172294D02*
X17131540Y-12229437D01*
X17574397Y-12586580D02*
X17560111Y-12572294D01*
X17531540Y-12529437D01*
X17517254Y-12500866D01*
X17502968Y-12458009D01*
X17488683Y-12386580D01*
X17488683Y-12329437D01*
X17502968Y-12258009D01*
X17517254Y-12215151D01*
X17531540Y-12186580D01*
X17560111Y-12143723D01*
X17574397Y-12129437D01*
X17702968Y-12472294D02*
X17760111Y-12472294D01*
X17788683Y-12458009D01*
X17802968Y-12443723D01*
X17831540Y-12400866D01*
X17845826Y-12343723D01*
X17845826Y-12229437D01*
X17831540Y-12200866D01*
X17817254Y-12186580D01*
X17788683Y-12172294D01*
X17731540Y-12172294D01*
X17702968Y-12186580D01*
X17688683Y-12200866D01*
X17674397Y-12229437D01*
X17674397Y-12300866D01*
X17688683Y-12329437D01*
X17702968Y-12343723D01*
X17731540Y-12358009D01*
X17788683Y-12358009D01*
X17817254Y-12343723D01*
X17831540Y-12329437D01*
X17845826Y-12300866D01*
X18202968Y-12472294D02*
X18202968Y-12172294D01*
X18331540Y-12472294D02*
X18331540Y-12315151D01*
X18317254Y-12286580D01*
X18288683Y-12272294D01*
X18245826Y-12272294D01*
X18217254Y-12286580D01*
X18202968Y-12300866D01*
X18517254Y-12472294D02*
X18488683Y-12458009D01*
X18474397Y-12443723D01*
X18460111Y-12415151D01*
X18460111Y-12329437D01*
X18474397Y-12300866D01*
X18488683Y-12286580D01*
X18517254Y-12272294D01*
X18560111Y-12272294D01*
X18588683Y-12286580D01*
X18602968Y-12300866D01*
X18617254Y-12329437D01*
X18617254Y-12415151D01*
X18602968Y-12443723D01*
X18588683Y-12458009D01*
X18560111Y-12472294D01*
X18517254Y-12472294D01*
X18788683Y-12472294D02*
X18760111Y-12458009D01*
X18745826Y-12429437D01*
X18745826Y-12172294D01*
X19017254Y-12458009D02*
X18988683Y-12472294D01*
X18931540Y-12472294D01*
X18902968Y-12458009D01*
X18888683Y-12429437D01*
X18888683Y-12315151D01*
X18902968Y-12286580D01*
X18931540Y-12272294D01*
X18988683Y-12272294D01*
X19017254Y-12286580D01*
X19031540Y-12315151D01*
X19031540Y-12343723D01*
X18888683Y-12372294D01*
X19145826Y-12458009D02*
X19174397Y-12472294D01*
X19231540Y-12472294D01*
X19260111Y-12458009D01*
X19274397Y-12429437D01*
X19274397Y-12415151D01*
X19260111Y-12386580D01*
X19231540Y-12372294D01*
X19188683Y-12372294D01*
X19160111Y-12358009D01*
X19145826Y-12329437D01*
X19145826Y-12315151D01*
X19160111Y-12286580D01*
X19188683Y-12272294D01*
X19231540Y-12272294D01*
X19260111Y-12286580D01*
X19374397Y-12586580D02*
X19388683Y-12572294D01*
X19417254Y-12529437D01*
X19431540Y-12500866D01*
X19445826Y-12458009D01*
X19460111Y-12386580D01*
X19460111Y-12329437D01*
X19445826Y-12258009D01*
X19431540Y-12215151D01*
X19417254Y-12186580D01*
X19388683Y-12143723D01*
X19374397Y-12129437D01*
X12316540Y-12732580D02*
G75*
G03*
X12316540Y-12732580I-50000J0D01*
G01*
X12760111Y-12868294D02*
X12588683Y-12868294D01*
X12674397Y-12868294D02*
X12674397Y-12568294D01*
X12645826Y-12611151D01*
X12617254Y-12639723D01*
X12588683Y-12654009D01*
X12888683Y-12839723D02*
X12902968Y-12854009D01*
X12888683Y-12868294D01*
X12874397Y-12854009D01*
X12888683Y-12839723D01*
X12888683Y-12868294D01*
X13088683Y-12568294D02*
X13117254Y-12568294D01*
X13145826Y-12582580D01*
X13160111Y-12596866D01*
X13174397Y-12625437D01*
X13188683Y-12682580D01*
X13188683Y-12754009D01*
X13174397Y-12811151D01*
X13160111Y-12839723D01*
X13145826Y-12854009D01*
X13117254Y-12868294D01*
X13088683Y-12868294D01*
X13060111Y-12854009D01*
X13045826Y-12839723D01*
X13031540Y-12811151D01*
X13017254Y-12754009D01*
X13017254Y-12682580D01*
X13031540Y-12625437D01*
X13045826Y-12596866D01*
X13060111Y-12582580D01*
X13088683Y-12568294D01*
X13374397Y-12568294D02*
X13402968Y-12568294D01*
X13431540Y-12582580D01*
X13445826Y-12596866D01*
X13460111Y-12625437D01*
X13474397Y-12682580D01*
X13474397Y-12754009D01*
X13460111Y-12811151D01*
X13445826Y-12839723D01*
X13431540Y-12854009D01*
X13402968Y-12868294D01*
X13374397Y-12868294D01*
X13345826Y-12854009D01*
X13331540Y-12839723D01*
X13317254Y-12811151D01*
X13302968Y-12754009D01*
X13302968Y-12682580D01*
X13317254Y-12625437D01*
X13331540Y-12596866D01*
X13345826Y-12582580D01*
X13374397Y-12568294D01*
X13660111Y-12568294D02*
X13688683Y-12568294D01*
X13717254Y-12582580D01*
X13731540Y-12596866D01*
X13745826Y-12625437D01*
X13760111Y-12682580D01*
X13760111Y-12754009D01*
X13745826Y-12811151D01*
X13731540Y-12839723D01*
X13717254Y-12854009D01*
X13688683Y-12868294D01*
X13660111Y-12868294D01*
X13631540Y-12854009D01*
X13617254Y-12839723D01*
X13602968Y-12811151D01*
X13588683Y-12754009D01*
X13588683Y-12682580D01*
X13602968Y-12625437D01*
X13617254Y-12596866D01*
X13631540Y-12582580D01*
X13660111Y-12568294D01*
X13888683Y-12868294D02*
X13888683Y-12668294D01*
X13888683Y-12696866D02*
X13902968Y-12682580D01*
X13931540Y-12668294D01*
X13974397Y-12668294D01*
X14002968Y-12682580D01*
X14017254Y-12711151D01*
X14017254Y-12868294D01*
X14017254Y-12711151D02*
X14031540Y-12682580D01*
X14060111Y-12668294D01*
X14102968Y-12668294D01*
X14131540Y-12682580D01*
X14145826Y-12711151D01*
X14145826Y-12868294D01*
X14288683Y-12868294D02*
X14288683Y-12668294D01*
X14288683Y-12696866D02*
X14302968Y-12682580D01*
X14331540Y-12668294D01*
X14374397Y-12668294D01*
X14402968Y-12682580D01*
X14417254Y-12711151D01*
X14417254Y-12868294D01*
X14417254Y-12711151D02*
X14431540Y-12682580D01*
X14460111Y-12668294D01*
X14502968Y-12668294D01*
X14531540Y-12682580D01*
X14545826Y-12711151D01*
X14545826Y-12868294D01*
X15131540Y-12554009D02*
X14874397Y-12939723D01*
X15517254Y-12568294D02*
X15545826Y-12568294D01*
X15574397Y-12582580D01*
X15588683Y-12596866D01*
X15602968Y-12625437D01*
X15617254Y-12682580D01*
X15617254Y-12754009D01*
X15602968Y-12811151D01*
X15588683Y-12839723D01*
X15574397Y-12854009D01*
X15545826Y-12868294D01*
X15517254Y-12868294D01*
X15488683Y-12854009D01*
X15474397Y-12839723D01*
X15460111Y-12811151D01*
X15445826Y-12754009D01*
X15445826Y-12682580D01*
X15460111Y-12625437D01*
X15474397Y-12596866D01*
X15488683Y-12582580D01*
X15517254Y-12568294D01*
X15745826Y-12839723D02*
X15760111Y-12854009D01*
X15745826Y-12868294D01*
X15731540Y-12854009D01*
X15745826Y-12839723D01*
X15745826Y-12868294D01*
X15945826Y-12568294D02*
X15974397Y-12568294D01*
X16002968Y-12582580D01*
X16017254Y-12596866D01*
X16031540Y-12625437D01*
X16045826Y-12682580D01*
X16045826Y-12754009D01*
X16031540Y-12811151D01*
X16017254Y-12839723D01*
X16002968Y-12854009D01*
X15974397Y-12868294D01*
X15945826Y-12868294D01*
X15917254Y-12854009D01*
X15902968Y-12839723D01*
X15888683Y-12811151D01*
X15874397Y-12754009D01*
X15874397Y-12682580D01*
X15888683Y-12625437D01*
X15902968Y-12596866D01*
X15917254Y-12582580D01*
X15945826Y-12568294D01*
X16145826Y-12568294D02*
X16331540Y-12568294D01*
X16231540Y-12682580D01*
X16274397Y-12682580D01*
X16302968Y-12696866D01*
X16317254Y-12711151D01*
X16331540Y-12739723D01*
X16331540Y-12811151D01*
X16317254Y-12839723D01*
X16302968Y-12854009D01*
X16274397Y-12868294D01*
X16188683Y-12868294D01*
X16160111Y-12854009D01*
X16145826Y-12839723D01*
X16474397Y-12868294D02*
X16531540Y-12868294D01*
X16560111Y-12854009D01*
X16574397Y-12839723D01*
X16602968Y-12796866D01*
X16617254Y-12739723D01*
X16617254Y-12625437D01*
X16602968Y-12596866D01*
X16588683Y-12582580D01*
X16560111Y-12568294D01*
X16502968Y-12568294D01*
X16474397Y-12582580D01*
X16460111Y-12596866D01*
X16445826Y-12625437D01*
X16445826Y-12696866D01*
X16460111Y-12725437D01*
X16474397Y-12739723D01*
X16502968Y-12754009D01*
X16560111Y-12754009D01*
X16588683Y-12739723D01*
X16602968Y-12725437D01*
X16617254Y-12696866D01*
X16874397Y-12668294D02*
X16874397Y-12868294D01*
X16802968Y-12554009D02*
X16731540Y-12768294D01*
X16917254Y-12768294D01*
X17017254Y-12568294D02*
X17017254Y-12625437D01*
X17131540Y-12568294D02*
X17131540Y-12625437D01*
X17574397Y-12982580D02*
X17560111Y-12968294D01*
X17531540Y-12925437D01*
X17517254Y-12896866D01*
X17502968Y-12854009D01*
X17488683Y-12782580D01*
X17488683Y-12725437D01*
X17502968Y-12654009D01*
X17517254Y-12611151D01*
X17531540Y-12582580D01*
X17560111Y-12539723D01*
X17574397Y-12525437D01*
X17817254Y-12568294D02*
X17760111Y-12568294D01*
X17731540Y-12582580D01*
X17717254Y-12596866D01*
X17688683Y-12639723D01*
X17674397Y-12696866D01*
X17674397Y-12811151D01*
X17688683Y-12839723D01*
X17702968Y-12854009D01*
X17731540Y-12868294D01*
X17788683Y-12868294D01*
X17817254Y-12854009D01*
X17831540Y-12839723D01*
X17845826Y-12811151D01*
X17845826Y-12739723D01*
X17831540Y-12711151D01*
X17817254Y-12696866D01*
X17788683Y-12682580D01*
X17731540Y-12682580D01*
X17702968Y-12696866D01*
X17688683Y-12711151D01*
X17674397Y-12739723D01*
X18202968Y-12868294D02*
X18202968Y-12568294D01*
X18331540Y-12868294D02*
X18331540Y-12711151D01*
X18317254Y-12682580D01*
X18288683Y-12668294D01*
X18245826Y-12668294D01*
X18217254Y-12682580D01*
X18202968Y-12696866D01*
X18517254Y-12868294D02*
X18488683Y-12854009D01*
X18474397Y-12839723D01*
X18460111Y-12811151D01*
X18460111Y-12725437D01*
X18474397Y-12696866D01*
X18488683Y-12682580D01*
X18517254Y-12668294D01*
X18560111Y-12668294D01*
X18588683Y-12682580D01*
X18602968Y-12696866D01*
X18617254Y-12725437D01*
X18617254Y-12811151D01*
X18602968Y-12839723D01*
X18588683Y-12854009D01*
X18560111Y-12868294D01*
X18517254Y-12868294D01*
X18788683Y-12868294D02*
X18760111Y-12854009D01*
X18745826Y-12825437D01*
X18745826Y-12568294D01*
X19017254Y-12854009D02*
X18988683Y-12868294D01*
X18931540Y-12868294D01*
X18902968Y-12854009D01*
X18888683Y-12825437D01*
X18888683Y-12711151D01*
X18902968Y-12682580D01*
X18931540Y-12668294D01*
X18988683Y-12668294D01*
X19017254Y-12682580D01*
X19031540Y-12711151D01*
X19031540Y-12739723D01*
X18888683Y-12768294D01*
X19145826Y-12854009D02*
X19174397Y-12868294D01*
X19231540Y-12868294D01*
X19260111Y-12854009D01*
X19274397Y-12825437D01*
X19274397Y-12811151D01*
X19260111Y-12782580D01*
X19231540Y-12768294D01*
X19188683Y-12768294D01*
X19160111Y-12754009D01*
X19145826Y-12725437D01*
X19145826Y-12711151D01*
X19160111Y-12682580D01*
X19188683Y-12668294D01*
X19231540Y-12668294D01*
X19260111Y-12682580D01*
X19631540Y-12754009D02*
X19860111Y-12754009D01*
X19745826Y-12868294D02*
X19745826Y-12639723D01*
X20217254Y-12596866D02*
X20231540Y-12582580D01*
X20260111Y-12568294D01*
X20331540Y-12568294D01*
X20360111Y-12582580D01*
X20374397Y-12596866D01*
X20388683Y-12625437D01*
X20388683Y-12654009D01*
X20374397Y-12696866D01*
X20202968Y-12868294D01*
X20388683Y-12868294D01*
X20731540Y-12854009D02*
X20760111Y-12868294D01*
X20817254Y-12868294D01*
X20845826Y-12854009D01*
X20860111Y-12825437D01*
X20860111Y-12811151D01*
X20845826Y-12782580D01*
X20817254Y-12768294D01*
X20774397Y-12768294D01*
X20745826Y-12754009D01*
X20731540Y-12725437D01*
X20731540Y-12711151D01*
X20745826Y-12682580D01*
X20774397Y-12668294D01*
X20817254Y-12668294D01*
X20845826Y-12682580D01*
X21031540Y-12868294D02*
X21002968Y-12854009D01*
X20988683Y-12825437D01*
X20988683Y-12568294D01*
X21188683Y-12868294D02*
X21160111Y-12854009D01*
X21145826Y-12839723D01*
X21131540Y-12811151D01*
X21131540Y-12725437D01*
X21145826Y-12696866D01*
X21160111Y-12682580D01*
X21188683Y-12668294D01*
X21231540Y-12668294D01*
X21260111Y-12682580D01*
X21274397Y-12696866D01*
X21288683Y-12725437D01*
X21288683Y-12811151D01*
X21274397Y-12839723D01*
X21260111Y-12854009D01*
X21231540Y-12868294D01*
X21188683Y-12868294D01*
X21374397Y-12668294D02*
X21488683Y-12668294D01*
X21417254Y-12568294D02*
X21417254Y-12825437D01*
X21431540Y-12854009D01*
X21460111Y-12868294D01*
X21488683Y-12868294D01*
X21574397Y-12854009D02*
X21602968Y-12868294D01*
X21660111Y-12868294D01*
X21688683Y-12854009D01*
X21702968Y-12825437D01*
X21702968Y-12811151D01*
X21688683Y-12782580D01*
X21660111Y-12768294D01*
X21617254Y-12768294D01*
X21588683Y-12754009D01*
X21574397Y-12725437D01*
X21574397Y-12711151D01*
X21588683Y-12682580D01*
X21617254Y-12668294D01*
X21660111Y-12668294D01*
X21688683Y-12682580D01*
X21802968Y-12982580D02*
X21817254Y-12968294D01*
X21845826Y-12925437D01*
X21860111Y-12896866D01*
X21874397Y-12854009D01*
X21888683Y-12782580D01*
X21888683Y-12725437D01*
X21874397Y-12654009D01*
X21860111Y-12611151D01*
X21845826Y-12582580D01*
X21817254Y-12539723D01*
X21802968Y-12525437D01*
M02*
